<?xml version="1.0" encoding="UTF-8" standalone="no"?>
<svg
   xmlns:dc="http://purl.org/dc/elements/1.1/"
   xmlns:cc="http://creativecommons.org/ns#"
   xmlns:rdf="http://www.w3.org/1999/02/22-rdf-syntax-ns#"
   xmlns:svg="http://www.w3.org/2000/svg"
   xmlns="http://www.w3.org/2000/svg"
   xmlns:sodipodi="http://sodipodi.sourceforge.net/DTD/sodipodi-0.dtd"
   xmlns:inkscape="http://www.inkscape.org/namespaces/inkscape"
   width="20.652956"
   height="18.931875"
   version="1.1"
   id="svg4"
   sodipodi:docname="heart.svg"
   inkscape:version="0.92.2 (5c3e80d, 2017-08-06)"
   style="clip-rule:evenodd;fill-rule:evenodd">
  <metadata
     id="metadata10">
    <rdf:RDF>
      <cc:Work
         rdf:about="">
        <dc:format>image/svg+xml</dc:format>
        <dc:type
           rdf:resource="http://purl.org/dc/dcmitype/StillImage" />
      </cc:Work>
    </rdf:RDF>
  </metadata>
  <defs
     id="defs8" />
  <sodipodi:namedview
     pagecolor="#ffffff"
     bordercolor="#666666"
     borderopacity="1"
     objecttolerance="10"
     gridtolerance="10"
     guidetolerance="10"
     inkscape:pageopacity="0"
     inkscape:pageshadow="2"
     inkscape:window-width="1920"
     inkscape:window-height="1057"
     id="namedview6"
     showgrid="false"
     inkscape:zoom="27.812867"
     inkscape:cx="5.3994689"
     inkscape:cy="7.1290059"
     inkscape:window-x="1912"
     inkscape:window-y="-8"
     inkscape:window-maximized="1"
     inkscape:current-layer="svg4" />
  <path
     d="M 10.326479,17.717546 C 6.0429059,13.503211 1.9571546,9.8830976 1.9571546,6.7598183 c 0,-2.884373 2.3342803,-3.9495597 4.0180359,-3.9495597 0.998232,0 3.158279,0.3811846 4.3512885,3.3910976 1.209746,-3.0190431 3.396423,-3.3834891 4.356613,-3.3834891 1.932552,0 4.012709,1.2333339 4.012709,3.9419512 0,3.0958883 -3.907712,6.5623107 -8.369322,10.9577277 M 14.683092,2.0570196 c -1.676148,0 -3.382729,0.7928031 -4.356613,2.4636244 C 9.3487895,2.8422143 7.6467725,2.0494111 5.9751905,2.0494111 c -2.4217777,0 -4.7788835,1.6639735 -4.7788835,4.7104072 0,3.5463117 4.2386818,7.1740327 9.130172,12.0282397 4.892249,-4.854207 9.13017,-8.481928 9.13017,-12.0282397 0,-3.0517595 -2.354823,-4.7027987 -4.773557,-4.7027987"
     id="path2"
     style="stroke-width:0.07608476;stroke-miterlimit:4;stroke-dasharray:none"
     inkscape:connector-curvature="0" />
</svg>
